<svg width="256" height="256" viewBox="0 0 256 256" xmlns="http://www.w3.org/2000/svg" role="img" aria-label="Default profile sticker">
  <defs>
    <filter id="shadow" x="-20%" y="-20%" width="140%" height="140%">
      <feDropShadow dx="0" dy="4" stdDeviation="3" flood-color="#000000" flood-opacity="0.15"/>
    </filter>
  </defs>

  <g filter="url(#shadow)">
    <path d="M128 18c-8 0-16 8-24 10-8 2-18-2-25 1-8 3-12 13-19 18-7 5-18 6-23 13-5 7-4 17-8 24-4 8-14 14-16 22-2 8 4 17 4 25s-6 17-4 25c2 8 12 14 16 22 4 7 3 17 8 24 5 7 16 8 23 13 7 5 11 15 19 18 7 3 17-1 25 1 8 2 16 10 24 10s16-8 24-10c8-2 18 2 25-1 8-3 12-13 19-18 7-5 18-6 23-13 5-7 4-17 8-24 4-8 14-14 16-22 2-8-4-17-4-25s6-17 4-25c-2-8-12-14-16-22-4-7-3-17-8-24-5-7-16-8-23-13-7-5-11-15-19-18-7-3-17 1-25-1-8-2-16-10-24-10z" fill="#ffffff"/>
    <path d="M128 42c-6 0-12 6-18 7-6 1-14-2-20 0-6 2-9 10-14 14-5 4-14 4-17 10-4 5-3 13-6 18-3 6-11 10-12 16-2 6 3 13 3 19s-5 13-3 19c1 6 9 10 12 16 3 5 2 13 6 18 3 6 12 6 17 10 5 4 8 12 14 14 6 2 14-1 20 0 6 1 12 7 18 7s12-6 18-7c6-1 14 2 20 0 6-2 9-10 14-14 5-4 14-4 17-10 4-5 3-13 6-18 3-6 11-10 12-16 2-6-3-13-3-19s5-13 3-19c-1-6-9-10-12-16-3-5-2-13-6-18-3-6-12-6-17-10-5-4-8-12-14-14-6-2-14 1-20 0-6-1-12-7-18-7z" fill="#f4af00"/>
    <path d="M86 168l-28 62 42-10 18 22 21-54z" fill="#f4af00"/>
    <path d="M144 188l31 40 24-17-30-38z" fill="#f3f4f6"/>
  </g>
</svg>
